inDegrees=yes
name=ik_Xsens_quaternion
DataType=double
version=3
OpenSimVersion=4.4-2022-07-23-0e9fedc
endheader
time	r_shoulder_elev	r_elbow_flex
12.88333333333333	480.2311337041707	2782.969013070008
12.9	478.8667734214749	2783.20657592571
12.91666666666667	477.3120081837515	2783.908058123917
12.93333333333333	475.8030422903529	2785.058685844364
12.95	474.2118236682448	2787.39892694564
12.96666666666667	472.3848625656152	2790.148688876213
12.98333333333333	469.7749268579792	2793.321030452389
13	467.4451568882199	2795.145296627438
13.01666666666667	465.6639886286257	2795.182678957844
13.03333333333333	464.3030415549026	2793.909150124993
13.05	463.2154786823048	2792.08110645244
13.06666666666667	462.2790008631137	2790.284380315588
13.08333333333333	461.4197361175524	2790.048442091738
13.1	460.3434257922462	2791.231686693773
13.11666666666667	458.8949458513057	2793.29021999324
13.13333333333333	456.7993049061251	2795.24680269026
13.15	455.0969590571838	2795.466246819819
13.16666666666667	454.5373551362268	2794.976034764849
13.18333333333333	454.3264000464149	2795.977197249018
13.2	453.5404588674018	2798.096087418591
13.21666666666667	452.3671293723497	2800.510930209273
13.23333333333333	451.4457653369028	2802.009962067236
13.25	451.5277811402661	2800.649685496824
13.26666666666667	451.9131804534715	2798.728635205055
13.28333333333333	452.1449014314231	2798.068015462939
13.3	452.4668336696992	2797.961082152519
13.31666666666667	453.1779944394547	2797.474734298772
13.33333333333333	453.6450008054401	2797.303861558501
13.35	453.8865786428482	2796.772383716143
13.36666666666667	453.970788985531	2796.118090424078
13.38333333333333	453.792647630113	2796.339710729967
13.4	453.8573709244645	2796.949180185008
13.41666666666667	453.7161847260625	2797.578526813446
13.43333333333333	453.0685191548632	2797.115628810296
13.45	452.8744311912134	2794.303813903107
13.46666666666667	453.8106028809246	2789.228490500269
13.48333333333333	455.0172625741587	2785.206616598778
13.5	455.6617304391809	2783.011715755929
13.51666666666667	456.1870100609586	2780.278253091567
13.53333333333333	456.9343085312539	2775.864985425415
13.55	457.463757219193	2771.505720435517
13.56666666666667	457.3935733611686	2768.540726968391
13.58333333333333	457.5384053987494	2765.920323270463
13.6	457.9198462729528	2762.647765069602
13.61666666666667	458.6660222740204	2758.292600767218
13.63333333333333	459.2411440846046	2753.925216289155
13.65	459.3575913955521	2751.251934663255
13.66666666666667	459.4866575456707	2749.257577560266
13.68333333333333	460.4743649377724	2747.693193002235
13.7	461.8300283763153	2746.006508312334
13.71666666666667	463.1599026972697	2744.28466178023
13.73333333333333	464.1199576453052	2742.362861911669
13.75	465.2770554035579	2739.715762678836
13.76666666666667	466.8030936085721	2736.388453576518
13.78333333333333	468.4257310149519	2733.481002039491
13.8	469.6236456831272	2731.841831274443
13.81666666666667	470.5857329505406	2730.727804474845
13.83333333333333	471.792678874122	2729.026256539389
13.85	473.6549057095245	2724.64543210894
13.86666666666667	475.9675502906388	2720.146632280257
13.88333333333333	477.7542525412542	2721.0295913607
13.9	478.1833515078196	2726.014130912381
13.91666666666667	477.7262141174926	2728.450855107019
13.93333333333333	477.3214498596174	2727.909890973284
13.95	476.6888440654818	2725.883293752061
13.96666666666667	476.295700409704	2723.988471897803
13.98333333333333	476.8393796589924	2721.840568968592
14	478.2538815613896	2719.876891973099
14.01666666666667	479.1758757719609	2720.710755487401
14.03333333333333	479.1278285540189	2723.435889114759
14.05	478.8525061731273	2726.136756567903
14.06666666666667	478.7296945479891	2725.771661658915
14.08333333333333	478.8114700831818	2723.059516964929
14.1	478.6481537935848	2723.102284113445
14.11666666666667	478.1849815081307	2723.026111630245
14.13333333333333	478.1631107180572	2722.473298410615
14.15	478.9257003677308	2722.377418198352
14.16666666666667	479.3693078777064	2724.828636222846
14.18333333333333	479.4694035276494	2729.266694268768
14.2	479.9868911433762	2732.460387561835
14.21666666666667	480.5862160014563	2732.662187379585
14.23333333333333	481.0249962499151	2731.746531649552
14.25	482.1634196509506	2732.165678518821
14.26666666666667	483.5867445013565	2735.821989699806
14.28333333333333	484.0353272744237	2739.337689952422
14.3	484.0038984094795	2740.895534099827
14.31666666666667	484.0717603444083	2738.733675811266
14.33333333333333	484.6509095397408	2735.040565574615
14.35	485.4450298184028	2732.917843557986
14.36666666666667	486.4543918881715	2733.560768482042
14.38333333333333	487.3843523582543	2735.540166677434
14.4	487.5761335223687	2737.039119144965
14.41666666666667	486.835070915097	2738.196221314968
14.43333333333333	485.956243426867	2739.227364022981
14.45	485.9845967426191	2741.25882456979
14.46666666666667	486.6919650437382	2744.450534895131
14.48333333333333	487.4371907655947	2747.822684268517
14.5	487.6276172508763	2748.514207573391
14.51666666666667	487.8913794240545	2747.680062477483
14.53333333333333	488.6120645062123	2747.989960591283
14.55	490.1883492676948	2749.801714115165
14.56666666666667	491.6169022386243	2752.81768402127
14.58333333333333	491.56450752452	2758.084079966674
14.6	490.5291885501793	2760.387862032582
14.61666666666667	490.8750436341226	2758.068005120123
14.63333333333333	492.0267080609527	2757.335541075993
14.65	493.0307315546533	2759.966270525732
14.66666666666667	493.9568248442177	2761.045422878016
14.68333333333333	495.5230649436573	2759.575838206588
14.7	497.4772476499817	2758.521616506302
14.71666666666667	498.2277008014079	2760.530689003429
14.73333333333333	497.7363082051624	2763.693719647015
14.75	498.2726661198937	2765.423880885246
14.76666666666667	499.7004500797332	2765.010311553553
14.78333333333333	500.6742555694853	2762.755664008878
14.8	501.1019266321017	2760.275098200326
14.81666666666667	501.3691219781557	2761.246957343532
14.83333333333333	501.7663206335873	2764.476784005235
14.85	502.3878693075985	2767.663751148069
14.86666666666667	501.5986654594784	2771.864620674461
14.88333333333333	500.3674479362958	2776.274344523186
14.9	499.9174223726959	2778.084398242668
14.91666666666667	500.4027740189462	2777.249902990557
14.93333333333333	502.2805684992504	2774.012089471244
14.95	505.8880303000537	2768.36731557222
14.96666666666667	510.7023608244449	2759.709361192893
14.98333333333333	515.3503233783624	2750.351813018005
15	518.3332338159717	2744.149762448789
15.01666666666667	523.2587327762282	2739.615238876304
15.03333333333333	537.0788807150077	2728.452504410704
15.05	567.2156726285532	2701.884882293702
15.06666666666667	606.9391635621377	2667.335922258036
15.08333333333333	648.4319571266147	2633.290962992791
15.1	675.6642441956504	2610.75627749502
15.11666666666667	686.603151064442	2601.976824175936
15.13333333333333	688.2041485117416	2601.285714026625
15.15	682.8969441397936	2605.371508427885
15.16666666666667	668.792932009209	2615.797183373541
15.18333333333333	641.3499145348732	2638.237126067818
15.2	598.7936320358855	2675.948412225648
15.21666666666667	553.9804831671811	2718.13707977716
15.23333333333333	523.0524295196128	2748.63949315006
15.25	506.4107385835989	2766.776824603599
15.26666666666667	498.3593050060292	2781.647840300895
15.28333333333333	495.0640316168229	2812.765355544144
15.3	477.1538827382822	2941.54397030223
15.31666666666667	450.8177989638604	3064.531851855194
15.33333333333333	445.7186095352334	3086.625142928088
15.35	440.8558945238047	3090.084541037656
15.36666666666667	434.3803304680556	3083.358826106206
15.38333333333333	425.0816889488812	3063.74235360054
15.4	403.5794106849689	3037.37405724471
15.41666666666667	337.0715040904208	3045.80655173991
15.43333333333333	486.093332705815	2859.846052203781
15.45	433.7594857090929	2887.479486429685
15.46666666666667	407.9014505795436	2914.743543793828
15.48333333333333	379.3776224374031	3001.617810128765
15.5	342.9479087465851	3132.425269247432
15.51666666666667	310.7543984191526	3189.223935378464
15.53333333333333	198.6601361613738	3290.574290016959
15.55	40.01184588898981	3362.630204130538
15.56666666666667	-28.01897181953912	3277.506224482971
15.58333333333333	-74.95507462850352	3247.338994632002
15.6	-129.8556592736418	3187.93635348403
15.61666666666667	-204.8668298781415	3106.137477457833
15.63333333333333	-146.90917866577	3018.009159602277
15.65	-253.7702791396452	3131.059237562082
15.66666666666667	-295.2605890053273	3238.258778407091
15.68333333333333	-318.8344849656659	3352.91081519745
15.7	-189.6543145606909	3255.260580197012
15.71666666666667	-137.5671505221513	3203.428313957477
15.73333333333333	-187.5960610498377	3190.307736968749
15.75	-263.6220870624127	3271.666637588377
15.76666666666667	-225.3603581059546	3211.336337989063
15.78333333333333	-399.962914003715	3337.65563061042
15.8	-506.5887812057741	3353.196983420462
15.81666666666667	-593.1559592394829	3373.764581023492
15.83333333333333	-659.3443104703467	3412.738523759191
15.85	-502.9893345858795	3212.381944572068
15.86666666666667	-539.4145649389104	3281.887833474292
15.88333333333333	-602.2326716717258	3306.981965125869
15.9	-697.8988453180357	3389.764118726432
15.91666666666667	-807.6603384544177	3498.327638014918
15.93333333333333	-901.4503669512911	3608.938186336291
15.95	-939.4838414068355	3694.977158016853
15.96666666666667	-825.34911824639	3627.96700358002
15.98333333333333	-892.8176609082838	3718.213067984023
16	-1011.569625917283	3851.069755907849
16.01666666666667	-1161.441642344824	4014.285930295718
16.03333333333333	-1281.966642243574	4139.461978494392
16.05	-1372.564142724936	4243.715920444293
16.06666666666667	-1455.977130221796	4373.406049854785
16.08333333333333	-1441.596753552863	4400.160851593502
16.1	-1334.186101319826	4315.995343320481
16.11666666666667	-1408.943882731671	4397.833882816341
16.13333333333333	-1536.716547197654	4526.069920072845
16.15	-1668.956419585106	4645.602413244573
16.16666666666667	-1779.23930494273	4736.888190164378
16.18333333333333	-1859.540643898484	4795.174220835264
16.2	-1922.434932591033	4829.150179097868
16.21666666666667	-1981.463537127283	4842.583752669546
16.23333333333333	-2035.008140785407	4837.689057484203
16.25	-2067.710541262207	4820.673639651222
16.26666666666667	-2202.494592348143	4935.161630507188
16.28333333333333	-2261.477756875955	4980.975117476218
16.3	-2328.558552216801	5038.98921189006
16.31666666666667	-2460.998864494524	5180.53118284382
16.33333333333333	-2580.220156487192	5323.188700332453
16.35	-2648.249566379839	5459.88787484298
16.36666666666667	-2771.079096545445	5725.636524535469
16.38333333333333	-2842.544429086273	5815.155774908564
16.4	-2928.058669969582	5909.352619855543
16.41666666666667	-3047.257440144748	6043.81081705158
16.43333333333333	-3176.222559155055	6180.750189765673
16.45	-3278.55240634286	6274.369341104353
16.46666666666667	-3366.014816204955	6348.625658707655
16.48333333333333	-3467.612428805919	6449.769809059069
16.5	-3580.331445758442	6582.186643918829
16.51666666666667	-3644.691891671063	6658.697520247382
16.53333333333333	-3564.403012613211	6452.168397799612
16.55	-3432.588880829239	6383.482028934313
16.56666666666667	-3482.40029507244	6411.913115040481
16.58333333333333	-3439.655396308934	6361.389076281049
16.6	-3486.15951325327	6394.476763895211
16.61666666666667	-3361.705045144216	6262.219522873503
16.63333333333333	-3463.555876078208	6352.01218983405
16.65	-3558.711240905375	6424.833330430539
16.66666666666667	-3687.836002595734	6538.837860654805
16.68333333333333	-3837.32463008573	6660.73693572681
16.7	-4007.513945368434	6797.929262877979
16.71666666666667	-4172.952701390485	6940.383011736227
16.73333333333333	-4299.834111518257	7027.332134457961
16.75	-4456.609617253643	7161.727767246892
16.76666666666667	-4611.774395614974	7291.423614833846
16.78333333333333	-4756.52584511652	7411.44285042127
16.8	-4912.766715614966	7558.922358060233
16.81666666666667	-5050.080603345042	7683.765769102126
16.83333333333333	-5190.182639307026	7821.460329314583
16.85	-5306.312636770733	7930.279719515092
16.86666666666667	-5413.328525912568	8030.774923271018
